<mxfile host="app.diagrams.net" modified="2022-07-10T14:01:57.303Z" agent="5.0 (Macintosh; Intel Mac OS X 10_15_7) AppleWebKit/605.1.15 (KHTML, like Gecko) Version/15.5 Safari/605.1.15" etag="UjBFU6kamNgcuclg6Snn" version="20.0.4" type="github">
  <diagram id="49vxUUQQEKZEbW9w4oPM" name="Page-1">
    <mxGraphModel dx="1018" dy="690" grid="1" gridSize="10" guides="1" tooltips="1" connect="1" arrows="1" fold="1" page="1" pageScale="1" pageWidth="850" pageHeight="1100" math="0" shadow="0">
      <root>
        <mxCell id="0" />
        <mxCell id="1" parent="0" />
        <mxCell id="t347c1t_qc9ZBc533ThC-4" value="" style="rounded=1;whiteSpace=wrap;html=1;" vertex="1" parent="1">
          <mxGeometry x="1210" y="100" width="120" height="150" as="geometry" />
        </mxCell>
        <mxCell id="t347c1t_qc9ZBc533ThC-5" value="" style="rounded=1;whiteSpace=wrap;html=1;" vertex="1" parent="1">
          <mxGeometry x="400" y="350" width="120" height="150" as="geometry" />
        </mxCell>
        <mxCell id="t347c1t_qc9ZBc533ThC-11" value="" style="rounded=1;whiteSpace=wrap;html=1;" vertex="1" parent="1">
          <mxGeometry x="160" y="350" width="120" height="150" as="geometry" />
        </mxCell>
        <mxCell id="t347c1t_qc9ZBc533ThC-12" value="&lt;font style=&quot;font-size: 18px&quot;&gt;Drawings&lt;/font&gt;" style="text;html=1;strokeColor=none;fillColor=none;align=center;verticalAlign=middle;whiteSpace=wrap;rounded=0;" vertex="1" parent="1">
          <mxGeometry x="190" y="450" width="60" height="30" as="geometry" />
        </mxCell>
        <mxCell id="t347c1t_qc9ZBc533ThC-13" value="" style="shape=image;html=1;verticalAlign=top;verticalLabelPosition=bottom;labelBackgroundColor=#ffffff;imageAspect=0;aspect=fixed;image=https://cdn4.iconfinder.com/data/icons/app-custom-ui-1/48/Edit-128.png" vertex="1" parent="1">
          <mxGeometry x="182.5" y="367" width="75" height="75" as="geometry" />
        </mxCell>
        <mxCell id="t347c1t_qc9ZBc533ThC-15" value="&lt;font style=&quot;font-size: 18px&quot;&gt;User Interface&lt;/font&gt;" style="text;html=1;strokeColor=none;fillColor=none;align=center;verticalAlign=middle;whiteSpace=wrap;rounded=0;" vertex="1" parent="1">
          <mxGeometry x="430" y="460" width="60" height="30" as="geometry" />
        </mxCell>
        <mxCell id="t347c1t_qc9ZBc533ThC-17" value="" style="rounded=1;whiteSpace=wrap;html=1;" vertex="1" parent="1">
          <mxGeometry x="995" y="100" width="120" height="150" as="geometry" />
        </mxCell>
        <mxCell id="t347c1t_qc9ZBc533ThC-18" value="" style="shape=datastore;whiteSpace=wrap;html=1;" vertex="1" parent="1">
          <mxGeometry x="1025" y="122" width="60" height="68" as="geometry" />
        </mxCell>
        <mxCell id="t347c1t_qc9ZBc533ThC-19" value="&lt;font style=&quot;font-size: 18px&quot;&gt;Database&lt;/font&gt;" style="text;html=1;strokeColor=none;fillColor=none;align=center;verticalAlign=middle;whiteSpace=wrap;rounded=0;" vertex="1" parent="1">
          <mxGeometry x="1025" y="200" width="60" height="30" as="geometry" />
        </mxCell>
        <mxCell id="t347c1t_qc9ZBc533ThC-20" value="" style="rounded=1;whiteSpace=wrap;html=1;" vertex="1" parent="1">
          <mxGeometry x="612.5" y="350" width="120" height="150" as="geometry" />
        </mxCell>
        <mxCell id="t347c1t_qc9ZBc533ThC-21" value="" style="shape=datastore;whiteSpace=wrap;html=1;opacity=80;strokeColor=#333333;" vertex="1" parent="1">
          <mxGeometry x="642.5" y="385" width="60" height="60" as="geometry" />
        </mxCell>
        <mxCell id="t347c1t_qc9ZBc533ThC-22" value="" style="shape=image;html=1;verticalAlign=top;verticalLabelPosition=bottom;labelBackgroundColor=#ffffff;imageAspect=0;aspect=fixed;image=https://cdn2.iconfinder.com/data/icons/thin-line-icons-for-seo-and-development-1/64/SEO_cogwheels_setting-128.png;imageBackground=none;imageBorder=none;" vertex="1" parent="1">
          <mxGeometry x="652.5" y="390" width="70" height="70" as="geometry" />
        </mxCell>
        <mxCell id="t347c1t_qc9ZBc533ThC-23" value="&lt;font style=&quot;font-size: 18px&quot;&gt;Preprocess&lt;/font&gt;" style="text;html=1;strokeColor=none;fillColor=none;align=center;verticalAlign=middle;whiteSpace=wrap;rounded=0;" vertex="1" parent="1">
          <mxGeometry x="642.5" y="460" width="60" height="30" as="geometry" />
        </mxCell>
        <mxCell id="t347c1t_qc9ZBc533ThC-24" value="" style="rounded=1;whiteSpace=wrap;html=1;" vertex="1" parent="1">
          <mxGeometry x="792.5" y="350" width="127.5" height="150" as="geometry" />
        </mxCell>
        <mxCell id="t347c1t_qc9ZBc533ThC-25" value="" style="sketch=0;outlineConnect=0;dashed=0;verticalLabelPosition=bottom;verticalAlign=top;align=center;html=1;fontSize=12;fontStyle=0;aspect=fixed;pointerEvents=1;shape=mxgraph.aws4.rekognition_image;fillColor=#808080;strokeColor=#666666;fontColor=#333333;" vertex="1" parent="1">
          <mxGeometry x="824.16" y="377" width="64.17" height="65" as="geometry" />
        </mxCell>
        <mxCell id="t347c1t_qc9ZBc533ThC-26" value="&lt;font style=&quot;font-size: 18px&quot;&gt;Image Recognition&lt;br&gt;&lt;br&gt;&lt;/font&gt;" style="text;html=1;strokeColor=none;fillColor=none;align=center;verticalAlign=middle;whiteSpace=wrap;rounded=0;" vertex="1" parent="1">
          <mxGeometry x="785" y="460" width="142.5" height="30" as="geometry" />
        </mxCell>
        <mxCell id="t347c1t_qc9ZBc533ThC-27" value="" style="endArrow=classic;html=1;rounded=0;exitX=1;exitY=0.5;exitDx=0;exitDy=0;entryX=0;entryY=0.5;entryDx=0;entryDy=0;" edge="1" parent="1" source="t347c1t_qc9ZBc533ThC-20" target="t347c1t_qc9ZBc533ThC-24">
          <mxGeometry width="50" height="50" relative="1" as="geometry">
            <mxPoint x="742.5" y="450" as="sourcePoint" />
            <mxPoint x="892.5" y="560" as="targetPoint" />
          </mxGeometry>
        </mxCell>
        <mxCell id="t347c1t_qc9ZBc533ThC-28" value="" style="rounded=1;whiteSpace=wrap;html=1;" vertex="1" parent="1">
          <mxGeometry x="990" y="350" width="130" height="150" as="geometry" />
        </mxCell>
        <mxCell id="t347c1t_qc9ZBc533ThC-29" value="" style="strokeWidth=2;outlineConnect=0;dashed=0;align=center;fontSize=8;verticalLabelPosition=bottom;verticalAlign=top;shape=mxgraph.eip.recipient_list;strokeColor=none;" vertex="1" parent="1">
          <mxGeometry x="1002.5" y="356" width="105" height="73" as="geometry" />
        </mxCell>
        <mxCell id="t347c1t_qc9ZBc533ThC-30" value="&lt;font style=&quot;font-size: 18px&quot;&gt;Feature Extraction&lt;br&gt;&lt;/font&gt;&lt;font style=&quot;font-size: 14px&quot;&gt;(Shapes, Color, Contours, Edges)&lt;/font&gt;" style="text;html=1;strokeColor=none;fillColor=none;align=center;verticalAlign=middle;whiteSpace=wrap;rounded=0;" vertex="1" parent="1">
          <mxGeometry x="997.5" y="442" width="115" height="30" as="geometry" />
        </mxCell>
        <mxCell id="t347c1t_qc9ZBc533ThC-31" value="" style="endArrow=classic;html=1;rounded=0;exitX=1;exitY=0.5;exitDx=0;exitDy=0;entryX=0;entryY=0.5;entryDx=0;entryDy=0;" edge="1" parent="1" source="t347c1t_qc9ZBc533ThC-5" target="t347c1t_qc9ZBc533ThC-20">
          <mxGeometry width="50" height="50" relative="1" as="geometry">
            <mxPoint x="590" y="410" as="sourcePoint" />
            <mxPoint x="640" y="360" as="targetPoint" />
          </mxGeometry>
        </mxCell>
        <mxCell id="t347c1t_qc9ZBc533ThC-32" value="" style="endArrow=classic;html=1;rounded=0;exitX=1;exitY=0.5;exitDx=0;exitDy=0;entryX=0;entryY=0.5;entryDx=0;entryDy=0;" edge="1" parent="1" source="t347c1t_qc9ZBc533ThC-11" target="t347c1t_qc9ZBc533ThC-5">
          <mxGeometry width="50" height="50" relative="1" as="geometry">
            <mxPoint x="590" y="410" as="sourcePoint" />
            <mxPoint x="640" y="360" as="targetPoint" />
          </mxGeometry>
        </mxCell>
        <mxCell id="t347c1t_qc9ZBc533ThC-33" value="" style="endArrow=classic;html=1;rounded=0;exitX=1;exitY=0.5;exitDx=0;exitDy=0;entryX=0;entryY=0.5;entryDx=0;entryDy=0;" edge="1" parent="1" source="t347c1t_qc9ZBc533ThC-24" target="t347c1t_qc9ZBc533ThC-28">
          <mxGeometry width="50" height="50" relative="1" as="geometry">
            <mxPoint x="770" y="410" as="sourcePoint" />
            <mxPoint x="820" y="360" as="targetPoint" />
          </mxGeometry>
        </mxCell>
        <mxCell id="t347c1t_qc9ZBc533ThC-34" style="edgeStyle=orthogonalEdgeStyle;rounded=0;orthogonalLoop=1;jettySize=auto;html=1;exitX=0.5;exitY=0;exitDx=0;exitDy=0;entryX=0;entryY=0.5;entryDx=0;entryDy=0;" edge="1" parent="1" source="t347c1t_qc9ZBc533ThC-5" target="t347c1t_qc9ZBc533ThC-17">
          <mxGeometry relative="1" as="geometry">
            <mxPoint x="555.3" y="815" as="sourcePoint" />
            <mxPoint x="640" y="260" as="targetPoint" />
          </mxGeometry>
        </mxCell>
        <mxCell id="t347c1t_qc9ZBc533ThC-35" style="edgeStyle=orthogonalEdgeStyle;rounded=0;orthogonalLoop=1;jettySize=auto;html=1;exitX=0.5;exitY=0;exitDx=0;exitDy=0;entryX=0.5;entryY=1;entryDx=0;entryDy=0;" edge="1" parent="1" source="t347c1t_qc9ZBc533ThC-28" target="t347c1t_qc9ZBc533ThC-17">
          <mxGeometry relative="1" as="geometry">
            <mxPoint x="870" y="625" as="sourcePoint" />
            <mxPoint x="1170" y="430" as="targetPoint" />
          </mxGeometry>
        </mxCell>
        <mxCell id="t347c1t_qc9ZBc533ThC-36" value="" style="shape=image;html=1;verticalAlign=top;verticalLabelPosition=bottom;labelBackgroundColor=#ffffff;imageAspect=0;aspect=fixed;image=https://cdn4.iconfinder.com/data/icons/essential-3/32/362-Computer-128.png;opacity=40;strokeWidth=1;imageBorder=none;" vertex="1" parent="1">
          <mxGeometry x="1234" y="110" width="72" height="72" as="geometry" />
        </mxCell>
        <mxCell id="t347c1t_qc9ZBc533ThC-37" value="&lt;font style=&quot;font-size: 18px&quot;&gt;Inference &amp;nbsp;Engine&lt;/font&gt;" style="text;html=1;strokeColor=none;fillColor=none;align=center;verticalAlign=middle;whiteSpace=wrap;rounded=0;" vertex="1" parent="1">
          <mxGeometry x="1240" y="200" width="60" height="30" as="geometry" />
        </mxCell>
        <mxCell id="t347c1t_qc9ZBc533ThC-38" value="" style="endArrow=classic;html=1;rounded=0;exitX=1;exitY=0.5;exitDx=0;exitDy=0;entryX=0;entryY=0.5;entryDx=0;entryDy=0;" edge="1" parent="1" source="t347c1t_qc9ZBc533ThC-17" target="t347c1t_qc9ZBc533ThC-4">
          <mxGeometry width="50" height="50" relative="1" as="geometry">
            <mxPoint x="1180" y="260" as="sourcePoint" />
            <mxPoint x="1230" y="210" as="targetPoint" />
          </mxGeometry>
        </mxCell>
        <mxCell id="t347c1t_qc9ZBc533ThC-39" value="" style="rounded=1;whiteSpace=wrap;html=1;" vertex="1" parent="1">
          <mxGeometry x="1210" y="350" width="120" height="150" as="geometry" />
        </mxCell>
        <mxCell id="t347c1t_qc9ZBc533ThC-40" value="" style="shadow=0;dashed=0;html=1;strokeColor=none;fillColor=#B3B3B3;labelPosition=center;verticalLabelPosition=bottom;verticalAlign=top;align=center;outlineConnect=0;shape=mxgraph.veeam.2d.report;sketch=0;" vertex="1" parent="1">
          <mxGeometry x="1245.8000000000002" y="368.2" width="48.4" height="60.8" as="geometry" />
        </mxCell>
        <mxCell id="t347c1t_qc9ZBc533ThC-41" value="&lt;font style=&quot;font-size: 18px&quot;&gt;Analysis Report&lt;/font&gt;" style="text;html=1;strokeColor=none;fillColor=none;align=center;verticalAlign=middle;whiteSpace=wrap;rounded=0;" vertex="1" parent="1">
          <mxGeometry x="1215" y="450" width="110" height="30" as="geometry" />
        </mxCell>
        <mxCell id="t347c1t_qc9ZBc533ThC-42" value="" style="endArrow=classic;html=1;rounded=0;exitX=0.5;exitY=1;exitDx=0;exitDy=0;entryX=0.5;entryY=0;entryDx=0;entryDy=0;" edge="1" parent="1" source="t347c1t_qc9ZBc533ThC-4" target="t347c1t_qc9ZBc533ThC-39">
          <mxGeometry width="50" height="50" relative="1" as="geometry">
            <mxPoint x="1060" y="460" as="sourcePoint" />
            <mxPoint x="1110" y="410" as="targetPoint" />
          </mxGeometry>
        </mxCell>
        <mxCell id="t347c1t_qc9ZBc533ThC-43" value="" style="endArrow=classic;html=1;rounded=0;exitX=0.5;exitY=1;exitDx=0;exitDy=0;entryX=0.5;entryY=1;entryDx=0;entryDy=0;edgeStyle=orthogonalEdgeStyle;" edge="1" parent="1" source="t347c1t_qc9ZBc533ThC-39" target="t347c1t_qc9ZBc533ThC-5">
          <mxGeometry width="50" height="50" relative="1" as="geometry">
            <mxPoint x="880" y="460" as="sourcePoint" />
            <mxPoint x="930" y="410" as="targetPoint" />
            <Array as="points">
              <mxPoint x="1270" y="580" />
              <mxPoint x="460" y="580" />
            </Array>
          </mxGeometry>
        </mxCell>
        <mxCell id="t347c1t_qc9ZBc533ThC-49" value="" style="points=[];aspect=fixed;html=1;align=center;shadow=0;dashed=0;image;image=img/lib/allied_telesis/computer_and_terminals/Personal_Computer.svg;" vertex="1" parent="1">
          <mxGeometry x="433.6" y="377" width="52.8" height="71.56" as="geometry" />
        </mxCell>
      </root>
    </mxGraphModel>
  </diagram>
</mxfile>
